<svg xmlns="http://www.w3.org/2000/svg" viewBox="0 0 1100 620" role="img" aria-labelledby="title desc">
<style>
.bg{fill:#050805}.panel{fill:#0a100b;stroke:#1f2a20;stroke-width:2}.lime{fill:#d9ff00}.white{fill:#f4f7f3}.muted{fill:#8e9a8e}.orange{fill:#ff9f1c}.blue{fill:#62a9ff}.green{fill:#66df9a}.red{fill:#ff6b7a}
.label{font:800 22px Inter,Arial,sans-serif;letter-spacing:.02em}.small{font:700 16px Inter,Arial,sans-serif}.kicker{font:900 13px Inter,Arial,sans-serif;letter-spacing:2px}
</style><title id="title">Entra ID Objects</title><desc id="desc">AshScript Intune lesson diagram</desc><rect class="bg" width="1100" height="620" rx="28"/><rect class="panel" x="60" y="110" width="300" height="230" rx="22"/><rect x="78" y="128" width="7" height="194" rx="3" fill="#62a9ff"/><text class="label white" x="102" y="157">USERS</text><text class="small muted" x="102" y="190">Who can sign in</text><text class="small muted" x="102" y="218">and access resources</text><rect class="panel" x="400" y="110" width="300" height="230" rx="22"/><rect x="418" y="128" width="7" height="194" rx="3" fill="#ff9f1c"/><text class="label white" x="442" y="157">DEVICES</text><text class="small muted" x="442" y="190">What is registered</text><text class="small muted" x="442" y="218">or joined to the cloud</text><rect class="panel" x="740" y="110" width="300" height="230" rx="22"/><rect x="758" y="128" width="7" height="194" rx="3" fill="#d9ff00"/><text class="label white" x="782" y="157">GROUPS</text><text class="small muted" x="782" y="190">Collections of users</text><text class="small muted" x="782" y="218">or devices for targeting</text><defs><marker id="am350" viewBox="0 0 10 10" refX="9" refY="5" markerWidth="6" markerHeight="6" orient="auto"><path d="M0 0 L10 5 L0 10z" fill="#d9ff00"/></marker></defs><path d="M360 225 L395 225" stroke="#d9ff00" stroke-width="3" fill="none" marker-end="url(#am350)"/><defs><marker id="am350" viewBox="0 0 10 10" refX="9" refY="5" markerWidth="6" markerHeight="6" orient="auto"><path d="M0 0 L10 5 L0 10z" fill="#d9ff00"/></marker></defs><path d="M700 225 L735 225" stroke="#d9ff00" stroke-width="3" fill="none" marker-end="url(#am350)"/><text class="kicker orange" x="550" y="420" text-anchor="middle">THE TARGETING MODEL</text><text class="label white" x="550" y="462" text-anchor="middle">Policies • Apps • Profiles → GROUPS → USERS / DEVICES</text></svg>